<svg width="26" height="32" viewBox="0 0 26 32" fill="none" xmlns="http://www.w3.org/2000/svg">
<path d="M25.784 27.7342L23.9426 6.98158C23.9095 6.5709 23.565 6.25957 23.1477 6.25957H19.2661C19.2595 2.80853 16.451 0 12.9999 0C9.54888 0 6.74035 2.80853 6.73373 6.25957H2.85213C2.44145 6.25957 2.097 6.5709 2.05726 6.98158L0.21582 27.7342C0.21582 27.7607 0.21582 27.7806 0.21582 27.8071C0.21582 30.1188 2.34209 32 4.9519 32H21.0479C23.6578 32 25.784 30.1188 25.784 27.8071C25.784 27.7806 25.784 27.7607 25.784 27.7342ZM12.9999 1.58973C15.5766 1.58973 17.6698 3.68288 17.6764 6.25957H8.32346C8.33008 3.68288 10.4232 1.58973 12.9999 1.58973ZM21.0479 30.4036H4.9519C3.22969 30.4036 1.82543 29.2577 1.80555 27.8336L3.58076 7.84931H6.73373V10.638C6.73373 11.0751 7.09142 11.4328 7.52859 11.4328C7.96577 11.4328 8.32346 11.0751 8.32346 10.638V7.84931H17.6764V10.638C17.6764 11.0751 18.0341 11.4328 18.4713 11.4328C18.9084 11.4328 19.2661 11.0751 19.2661 10.638V7.84931H22.4191L24.1943 27.8402C24.1744 29.2577 22.7702 30.4036 21.0479 30.4036Z" fill="#00B307"/>
</svg>
