<svg width="31" height="32" viewBox="0 0 31 32" fill="none" xmlns="http://www.w3.org/2000/svg">
<path d="M26.4478 12.1681V10.9378C26.4478 7.99328 25.4058 5.25714 23.5167 3.22689C21.5806 1.14286 18.9184 0 16.0142 0H14.9991C12.0949 0 9.43268 1.14286 7.49655 3.22689C5.60747 5.25714 4.56546 7.99328 4.56546 10.9378V12.1681C2.27302 12.3227 0.451172 14.2319 0.451172 16.5647V18.4874C0.451172 20.9143 2.42764 22.8908 4.85453 22.8908H7.33521C7.7789 22.8908 8.14193 22.5277 8.14193 22.084V12.9613C8.14193 12.5176 7.7789 12.1546 7.33521 12.1546H6.1789V10.9378C6.1789 5.62017 9.9705 1.61345 14.9923 1.61345H16.0075C21.036 1.61345 24.8209 5.62017 24.8209 10.9378V12.1546H23.6646C23.2209 12.1546 22.8579 12.5176 22.8579 12.9613V22.0773C22.8579 22.521 23.2209 22.884 23.6646 22.884H24.794C24.4646 27.0924 21.5671 28.0672 20.2226 28.2891C19.8529 27.1529 18.7839 26.3328 17.5268 26.3328H15.51C13.9503 26.3328 12.6797 27.6034 12.6797 29.163C12.6797 30.7227 13.9503 32 15.51 32H17.5335C18.8377 32 19.9335 31.1126 20.2629 29.916C20.9218 29.8218 21.9638 29.5866 22.9991 28.9815C24.4579 28.1277 26.1856 26.3866 26.4142 22.8773C28.7201 22.7361 30.5487 20.8202 30.5487 18.4807V16.558C30.5554 14.2319 28.7402 12.316 26.4478 12.1681ZM6.54193 21.2706H4.86798C3.32848 21.2706 2.07806 20.0202 2.07806 18.4807V16.558C2.07806 15.0185 3.32848 13.7681 4.86798 13.7681H6.54193V21.2706ZM17.5335 30.3866H15.51C14.8377 30.3866 14.2932 29.842 14.2932 29.1697C14.2932 28.4975 14.8377 27.9529 15.51 27.9529H17.5335C18.2058 27.9529 18.7503 28.4975 18.7503 29.1697C18.7503 29.842 18.2058 30.3866 17.5335 30.3866ZM28.9419 18.4807C28.9419 20.0202 27.6915 21.2706 26.152 21.2706H24.4781V13.7681H26.152C27.6915 13.7681 28.9419 15.0185 28.9419 16.558V18.4807Z" fill="#00B307"/>
</svg>
