<svg width="31" height="32" viewBox="0 0 31 32" fill="none" xmlns="http://www.w3.org/2000/svg">
<path d="M30.2166 7.54411C30.2166 7.42254 30.1895 7.30097 30.1355 7.18616C30.0274 6.95652 29.8181 6.80118 29.5884 6.75391L15.8307 0.0810469C15.6079 -0.0270156 15.3445 -0.0270156 15.1216 0.0810469L1.2288 6.81469C0.958641 6.94301 0.783039 7.21317 0.769531 7.5171V7.52385C0.769531 7.5306 0.769531 7.53736 0.769531 7.55087V24.4491C0.769531 24.7598 0.945133 25.0435 1.2288 25.1786L15.1216 31.9122C15.1283 31.9122 15.1283 31.9122 15.1351 31.919C15.1553 31.9257 15.1756 31.9325 15.1959 31.946C15.2026 31.946 15.2094 31.9527 15.2229 31.9527C15.2431 31.9595 15.2634 31.9662 15.2837 31.973C15.2904 31.973 15.2972 31.9797 15.3039 31.9797C15.3242 31.9865 15.3512 31.9865 15.3715 31.9932C15.3782 31.9932 15.385 31.9932 15.3917 31.9932C15.4187 31.9932 15.4525 32 15.4795 32C15.5066 32 15.5403 32 15.5673 31.9932C15.5741 31.9932 15.5808 31.9932 15.5876 31.9932C15.6079 31.9932 15.6349 31.9865 15.6551 31.9797C15.6619 31.9797 15.6686 31.973 15.6754 31.973C15.6957 31.9662 15.7159 31.9595 15.7362 31.9527C15.7429 31.9527 15.7497 31.946 15.7632 31.946C15.7835 31.9392 15.8037 31.9325 15.824 31.919C15.8307 31.919 15.8307 31.919 15.8375 31.9122L29.7708 25.1583C30.0477 25.0232 30.2301 24.7396 30.2301 24.4289V7.56437C30.2166 7.55762 30.2166 7.55087 30.2166 7.54411ZM15.4728 1.70874L27.5217 7.55087L23.0844 9.70536L11.0355 3.86323L15.4728 1.70874ZM15.4728 13.393L3.42382 7.55087L9.17814 4.7615L21.2271 10.6036L15.4728 13.393ZM2.39047 8.85437L14.6623 14.8046V29.886L2.39047 23.9358V8.85437ZM16.2832 29.886V14.8046L22.0443 12.0084V15.9527C22.0443 16.3985 22.409 16.7632 22.8548 16.7632C23.3006 16.7632 23.6653 16.3985 23.6653 15.9527V11.2182L28.5956 8.82735V23.9088L16.2832 29.886Z" fill="#00B307"/>
</svg>
