<svg width="32" height="32" viewBox="0 0 32 32" fill="none" xmlns="http://www.w3.org/2000/svg">
<circle cx="16" cy="16" r="16" fill="#D9F5EE"/>
<g clip-path="url(#clip0_4_2642)">
<path d="M20.9417 7.47508C19.4333 6.59467 17.7857 6.15454 15.9995 6.15454C14.213 6.15454 12.5655 6.59467 11.057 7.47508C9.54858 8.35554 8.35411 9.55 7.47386 11.0583C6.59344 12.5669 6.15332 14.2144 6.15332 16.0007C6.15332 17.9921 6.69583 19.7998 7.78145 21.4236C8.86687 23.0478 10.2898 24.2485 12.0507 25.0261C12.0164 24.1115 12.0719 23.3553 12.2174 22.757L13.4865 17.398C13.2728 16.9793 13.1661 16.4581 13.1661 15.834C13.1661 15.1075 13.3498 14.5005 13.7173 14.0136C14.0846 13.5262 14.5335 13.2825 15.0635 13.2825C15.4907 13.2825 15.8199 13.4234 16.0507 13.7058C16.2815 13.9877 16.397 14.3425 16.397 14.7698C16.397 15.0349 16.3476 15.3576 16.2496 15.7378C16.1512 16.1182 16.023 16.5583 15.865 17.0584C15.7069 17.5582 15.5937 17.9578 15.5252 18.257C15.4054 18.7783 15.5038 19.2248 15.8201 19.5967C16.1361 19.9685 16.5551 20.1543 17.0765 20.1543C17.9911 20.1543 18.7411 19.646 19.3267 18.6288C19.9121 17.6117 20.2048 16.3767 20.2048 14.9235C20.2048 13.804 19.8438 12.8935 19.1215 12.1927C18.3992 11.4921 17.3926 11.1414 16.1023 11.1414C14.6577 11.1414 13.4888 11.6053 12.5959 12.5323C11.7028 13.4598 11.2562 14.5689 11.2562 15.8591C11.2562 16.6284 11.4743 17.2739 11.91 17.7952C12.0553 17.9662 12.1023 18.1498 12.0511 18.3462C12.0338 18.3976 11.9997 18.5258 11.9485 18.7308C11.8973 18.9358 11.863 19.0685 11.8459 19.1282C11.7774 19.4019 11.6151 19.4874 11.3585 19.3846C10.7004 19.1111 10.2003 18.6369 9.85861 17.9616C9.51672 17.2866 9.34585 16.5046 9.34585 15.6156C9.34585 15.043 9.43763 14.4703 9.62137 13.8976C9.80512 13.3249 10.0913 12.7716 10.4804 12.2372C10.8691 11.7034 11.3351 11.2309 11.878 10.8207C12.4207 10.4103 13.081 10.0816 13.8588 9.83327C14.6365 9.58563 15.4742 9.46163 16.3717 9.46163C17.5853 9.46163 18.6751 9.73089 19.6409 10.2692C20.6066 10.8078 21.3439 11.5045 21.8525 12.3591C22.3608 13.2137 22.6153 14.1281 22.6153 15.1028C22.6153 16.3849 22.3929 17.5387 21.9487 18.5645C21.5042 19.5902 20.8759 20.3956 20.0639 20.9811C19.2517 21.5664 18.3286 21.8592 17.2946 21.8592C16.7732 21.8592 16.286 21.7375 15.833 21.4937C15.3797 21.2501 15.0678 20.9617 14.897 20.6283C14.5124 22.1409 14.2816 23.0431 14.2047 23.3333C14.0421 23.9403 13.7088 24.641 13.2046 25.4359C14.1191 25.7094 15.0507 25.846 15.9995 25.846C17.7857 25.846 19.4333 25.4059 20.9417 24.5257C22.4501 23.6452 23.6446 22.4508 24.5251 20.9421C25.4053 19.4336 25.8457 17.7864 25.8457 15.9998C25.8457 14.2134 25.4053 12.5661 24.5251 11.0575C23.6448 9.55 22.4501 8.35554 20.9417 7.47508Z" fill="#252A34"/>
</g>
<defs>
<clipPath id="clip0_4_2642">
<rect width="19.6923" height="19.6923" fill="white" transform="translate(6.15332 6.15381)"/>
</clipPath>
</defs>
</svg>
